<?xml version="1.0" encoding="UTF-8"?>
<svg id="Layer_1" data-name="Layer 1" xmlns="http://www.w3.org/2000/svg" viewBox="0 0 836.23 660.98">
  <defs>
    <style>
      .cls-1 {
        fill: #6ccada;
        stroke: #6ccada;
      }

      .cls-1, .cls-2, .cls-3 {
        stroke-miterlimit: 10;
        stroke-width: 15px;
      }

      .cls-2 {
        fill: #3ba5be;
        stroke: #3ba5be;
      }

      .cls-3 {
        fill: #566f8c;
        stroke: #566f8c;
      }
    </style>
  </defs>
  <path class="cls-3" d="M242.72,7.5c-60.19,0-120.39,22.96-166.32,68.89-91.88,91.88-91.86,240.82,0,332.68l175.51,175.51c91.88,91.88,240.8,91.88,332.68,0,91.86-91.86,91.86-240.78-.02-332.66l-175.51-175.51C363.13,30.47,302.94,7.5,242.72,7.5ZM534.68,300.37c64.69,64.69,64.69,169.6,0,234.29-64.71,64.71-169.62,64.71-234.31.02l-174.07-174.07c-64.69-64.69-64.69-169.6.02-234.31,32.36-32.36,74.76-48.52,117.15-48.51,42.39-.02,84.79,16.15,117.15,48.51l174.07,174.07Z"/>
  <path class="cls-1" d="M828.73,242.72c0-60.19-22.96-120.39-68.89-166.32-91.88-91.88-240.82-91.86-332.68,0l-175.51,175.51c-91.88,91.88-91.88,240.8,0,332.68,91.86,91.86,240.78,91.86,332.66-.02l175.51-175.51c45.93-45.93,68.9-106.12,68.9-166.34ZM535.86,534.68c-64.69,64.69-169.6,64.69-234.29,0-64.71-64.71-64.71-169.62-.02-234.31l174.07-174.07c64.69-64.69,169.6-64.69,234.31.02,32.36,32.36,48.52,74.76,48.51,117.15.02,42.39-16.15,84.79-48.51,117.15l-174.07,174.07Z"/>
  <g>
    <rect class="cls-2" x="383.34" y="99.86" width="69.54" height="69.54" transform="translate(27.26 335.08) rotate(-45)"/>
    <path class="cls-2" d="M418.12,653.47c60.15-.04,120.3-23,166.2-68.91l5.46-5.46c42.71-45.49,63.96-103.78,63.68-162.02l-117.59,117.59c-32.5,32.5-75.15,48.66-117.75,48.51-42.6.16-85.25-16-117.75-48.5l-117.58-117.58c-.28,58.28,21,116.61,63.78,162.12l5.35,5.35c45.9,45.9,106.05,68.87,166.21,68.9Z"/>
  </g>
</svg>