<?xml version="1.0" encoding="UTF-8"?>
<svg id="Layer_1" data-name="Layer 1" xmlns="http://www.w3.org/2000/svg" viewBox="0 0 612.73 612.73">
  <path d="M578.69,554.62v-95.07c0-9.4,7.62-17.02,17.02-17.02s17.02,7.62,17.02,17.02v136.16c0,9.4-7.62,17.02-17.02,17.02h-136.16c-9.4,0-17.02-7.62-17.02-17.02s7.62-17.02,17.02-17.02h95.07l-107.11-107.11c-6.65-6.65-6.65-17.42,0-24.07,6.65-6.65,17.42-6.65,24.07,0l107.11,107.11ZM34.04,58.11v95.07c0,9.4-7.62,17.02-17.02,17.02S0,162.58,0,153.18V17.02C0,7.62,7.62,0,17.02,0h136.16c9.4,0,17.02,7.62,17.02,17.02s-7.62,17.02-17.02,17.02H58.11l107.11,107.11c6.65,6.65,6.65,17.42,0,24.07-6.65,6.65-17.42,6.65-24.07,0L34.04,58.11ZM58.11,578.69h95.07c9.4,0,17.02,7.62,17.02,17.02s-7.62,17.02-17.02,17.02H17.02c-9.4,0-17.02-7.62-17.02-17.02v-136.16c0-9.4,7.62-17.02,17.02-17.02s17.02,7.62,17.02,17.02v95.07l107.11-107.11c6.65-6.65,17.42-6.65,24.07,0,6.65,6.65,6.65,17.42,0,24.07l-107.11,107.11ZM554.62,34.04h-95.07c-9.4,0-17.02-7.62-17.02-17.02s7.62-17.02,17.02-17.02h136.16c9.4,0,17.02,7.62,17.02,17.02v137.22c0,9.4-7.62,17.02-17.02,17.02s-17.02-7.62-17.02-17.02V58.11l-107.11,107.11c-6.65,6.65-17.42,6.65-24.07,0-6.65-6.65-6.65-17.42,0-24.07l107.11-107.11h0ZM170.2,255.13c0-46.92,37.97-84.98,84.88-85.1l102.12-.26c47.22,0,85.32,38.1,85.32,85.1v102.56c0,47-38.1,85.1-85.1,85.1h-102.12c-47,0-85.1-38.1-85.1-85.1v-102.29ZM204.24,255.13v102.29c0,28.2,22.86,51.06,51.06,51.06h102.12c28.2,0,51.06-22.86,51.06-51.06v-102.56c0-28.2-22.86-51.06-51.06-51.06l-102.25.26c-28.15.07-50.93,22.91-50.93,51.06Z" style="fill: #6ccada; stroke-width: 0px;"/>
</svg>