<?xml version="1.0" encoding="UTF-8"?>
<svg id="Layer_1" data-name="Layer 1" xmlns="http://www.w3.org/2000/svg" viewBox="0 0 624.27 624.14">
  <path d="M598.15,572.29l-545.91-.25.25-546.04C52.49,11.59,40.64.13,26.37,0,11.98,0,.25,11.59.25,25.99l-.25,572.03c0,6.88,2.8,13.5,7.64,18.35,4.59,4.59,10.57,7.26,17.07,7.52h1.4l572.03.25c14.4,0,26.12-11.59,26.12-25.99s-11.72-25.86-26.12-25.86Z" style="fill: #6ccada; stroke-width: 0px;"/>
  <path d="M137.11,498.04l143.55-119.78,182.96-9.93c9.63-.52,18.22-6.37,22.3-15.04l35.78-76.96,28.48-64.93,14,30.74c10.3,20.37,29.33,15.11,34.67,12.81,13.26-5.56,18.81-21.33,12.89-34.37l-40.52-88.44c-8.81-18.15-28.15-16.52-34.96-12.74l-86.96,41.04c-13.04,6.15-18.59,21.7-12.52,34.67,6.15,13.04,21.78,18.44,34.81,12.37l29.26-13.93-27.07,61.97-28.67,61.7-176.07,9.56c-5.56.22-10.89,2.44-15.26,6l-150.22,125.33c-11.04,9.18-12.37,25.48-3.26,36.74,8.89,10.67,26.37,12.44,36.81,3.19Z" style="fill: #6ccada; stroke-width: 0px;"/>
</svg>