<?xml version="1.0" encoding="UTF-8"?>
<svg id="Layer_1" data-name="Layer 1" xmlns="http://www.w3.org/2000/svg" viewBox="0 0 640.37 641.77">
  <path d="M629.11,61.08c6.21,0,11.25-5.04,11.25-11.25V11.25c0-6.21-5.04-11.25-11.25-11.25H11.25C5.04,0,0,5.04,0,11.25v38.58C0,56.05,5.04,61.08,11.25,61.08h38.88v329.53H11.25c-6.21,0-11.25,5.04-11.25,11.25v38.58c0,6.21,5.04,11.25,11.25,11.25h280.32l-177.44,170.72c-4.48,4.31-4.62,11.43-.31,15.91,2.21,2.3,5.16,3.45,8.11,3.45s5.62-1.04,7.8-3.14l168.48-162.1v153.99c0,6.21,5.04,11.25,11.25,11.25s11.25-5.04,11.25-11.25v-153.99l168.48,162.1c2.18,2.1,4.99,3.14,7.8,3.14,2.95,0,5.9-1.16,8.11-3.45,4.31-4.48,4.17-11.6-.31-15.91l-177.44-170.72h301.74c6.21,0,11.25-5.04,11.25-11.25v-38.58c0-6.21-5.04-11.25-11.25-11.25h-38.88V61.08h38.88ZM22.5,22.5h595.36v16.07H22.5v-16.07ZM617.86,429.19H22.5v-16.07h595.36v16.07h0ZM567.73,390.61H72.64V61.08h495.09v329.53h0Z" style="fill: #6ccada; stroke-width: 0px;"/>
  <path d="M178.37,304.04c2.88,0,5.76-1.1,7.96-3.3l61.15-61.15,70.49,70.49c2.2,2.2,5.08,3.29,7.96,3.29s5.76-1.1,7.96-3.29l96.23-96.23v64.54c0,6.21,5.04,11.25,11.25,11.25s11.25-5.04,11.25-11.25v-92.8c0-3.11-1.27-5.93-3.31-7.97-2.04-2.04-4.85-3.31-7.97-3.31h-92.8c-6.21,0-11.25,5.03-11.25,11.25s5.04,11.25,11.25,11.25h66.78s-89.4,89.4-89.4,89.4l-70.49-70.49c-4.4-4.39-11.52-4.39-15.91,0,0,0,0,.01-.01.02l-69.09,69.09c-4.4,4.4-4.4,11.52,0,15.91,2.2,2.2,5.08,3.3,7.96,3.3Z" style="fill: #6ccada; stroke-width: 0px;"/>
</svg>